<?xml version="1.0" encoding="UTF-8" standalone="no"?>
<!-- Created with Inkscape (http://www.inkscape.org/) -->

<svg
   width="575.95618"
   height="326.29279"
   viewBox="0 0 152.3884 86.33163"
   version="1.1"
   id="svg1279"
   sodipodi:docname="logo396x412.svg"
   inkscape:export-filename="./bitmap.svg"
   inkscape:export-xdpi="48.18"
   inkscape:export-ydpi="48.18"
   inkscape:version="1.2 (dc2aedaf03, 2022-05-15)"
   xmlns:inkscape="http://www.inkscape.org/namespaces/inkscape"
   xmlns:sodipodi="http://sodipodi.sourceforge.net/DTD/sodipodi-0.dtd"
   xmlns:xlink="http://www.w3.org/1999/xlink"
   xmlns="http://www.w3.org/2000/svg"
   xmlns:svg="http://www.w3.org/2000/svg">
  <sodipodi:namedview
     id="namedview1281"
     pagecolor="#ffffff"
     bordercolor="#000000"
     borderopacity="0.25"
     inkscape:showpageshadow="2"
     inkscape:pageopacity="0.0"
     inkscape:pagecheckerboard="0"
     inkscape:deskcolor="#d1d1d1"
     inkscape:document-units="px"
     showgrid="false"
     inkscape:zoom="0.83780448"
     inkscape:cx="259.01031"
     inkscape:cy="183.21697"
     inkscape:window-width="1600"
     inkscape:window-height="836"
     inkscape:window-x="0"
     inkscape:window-y="0"
     inkscape:window-maximized="1"
     inkscape:current-layer="layer1" />
  <defs
     id="defs1276">
    <marker
       style="overflow:visible"
       id="Arrow1Lstart-356"
       refX="0"
       refY="0"
       orient="auto"
       inkscape:stockid="Arrow1Lstart"
       inkscape:isstock="true">
      <path
         transform="matrix(0.8,0,0,0.8,10,0)"
         style="fill:context-stroke;fill-rule:evenodd;stroke:context-stroke;stroke-width:1pt"
         d="M 0,0 5,-5 -12.5,0 5,5 Z"
         id="path27770-2" />
    </marker>
    <inkscape:path-effect
       effect="powerstroke"
       id="path-effect110-5"
       is_visible="true"
       lpeversion="1"
       offset_points="0.2,0.097101511 | 1.4959182,1.2675325 | 2.8,0.097101511"
       not_jump="false"
       sort_points="true"
       interpolator_type="CentripetalCatmullRom"
       interpolator_beta="0.13043478"
       start_linecap_type="zerowidth"
       linejoin_type="round"
       miter_limit="4"
       scale_width="1"
       end_linecap_type="zerowidth" />
    <marker
       style="overflow:visible"
       id="Arrow1Lstart-3-1"
       refX="0"
       refY="0"
       orient="auto"
       inkscape:stockid="Arrow1Lstart"
       inkscape:isstock="true">
      <path
         transform="matrix(0.8,0,0,0.8,10,0)"
         style="fill:context-stroke;fill-rule:evenodd;stroke:context-stroke;stroke-width:1pt"
         d="M 0,0 5,-5 -12.5,0 5,5 Z"
         id="path27770-6-9" />
    </marker>
    <inkscape:path-effect
       effect="powerstroke"
       id="path-effect110-7-4"
       is_visible="true"
       lpeversion="1"
       offset_points="0.2,0.10267844 | 1.4617962,2.1440937 | 2.8,0.10267844"
       not_jump="false"
       sort_points="true"
       interpolator_type="CentripetalCatmullRom"
       interpolator_beta="0.13043478"
       start_linecap_type="zerowidth"
       linejoin_type="round"
       miter_limit="4"
       scale_width="1"
       end_linecap_type="zerowidth" />
    <linearGradient
       inkscape:collect="always"
       xlink:href="#linearGradient5012"
       id="linearGradient16576"
       gradientUnits="userSpaceOnUse"
       gradientTransform="matrix(0.11355711,0.0302852,-0.0302852,0.11355711,40.8297,22.430114)"
       x1="446.98001"
       y1="526.21997"
       x2="322.75"
       y2="217.97" />
    <linearGradient
       id="linearGradient5012"
       y2="217.97"
       gradientUnits="userSpaceOnUse"
       x2="322.75"
       gradientTransform="translate(-354.42,-192.43)"
       y1="526.21997"
       x1="446.98001"
       inkscape:collect="always">
      <stop
         id="stop3747"
         style="stop-color:#6e0000"
         offset="0" />
      <stop
         id="stop3749"
         style="stop-color:#b60000"
         offset=".44731" />
      <stop
         id="stop3751"
         style="stop-color:#ad0000"
         offset=".84263" />
      <stop
         id="stop3753"
         style="stop-color:#e90000"
         offset="1" />
    </linearGradient>
    <linearGradient
       inkscape:collect="always"
       xlink:href="#linearGradient5014"
       id="linearGradient16578"
       gradientUnits="userSpaceOnUse"
       gradientTransform="matrix(0.49866,0.50081,0.56341,-0.44229,-436.91,110.93)"
       x1="194.08"
       y1="327.48001"
       x2="332.85001"
       y2="339.94" />
    <linearGradient
       id="linearGradient5014"
       y2="339.94"
       gradientUnits="userSpaceOnUse"
       x2="332.85001"
       gradientTransform="matrix(0.49866,0.50081,0.56341,-0.44229,-436.91,110.93)"
       y1="327.48001"
       x1="194.08"
       inkscape:collect="always">
      <stop
         id="stop3499"
         style="stop-color:#f97373"
         offset="0" />
      <stop
         id="stop3501"
         style="stop-color:#ffffff;stop-opacity:0"
         offset="1" />
    </linearGradient>
    <filter
       id="filter3956-2"
       inkscape:collect="always"
       x="-0.080328104"
       y="-0.089005215"
       width="1.1606562"
       height="1.1780104">
      <feGaussianBlur
         id="feGaussianBlur3958-61"
         stdDeviation="2.6998388"
         inkscape:collect="always" />
    </filter>
    <linearGradient
       inkscape:collect="always"
       xlink:href="#linearGradient15457"
       id="linearGradient15459"
       x1="74.858948"
       y1="801.93964"
       x2="769.57904"
       y2="720.20929"
       gradientUnits="userSpaceOnUse"
       gradientTransform="translate(-2.2375119,-8.8053987)" />
    <linearGradient
       inkscape:collect="always"
       id="linearGradient15457">
      <stop
         style="stop-color:#000000;stop-opacity:1;"
         offset="0"
         id="stop15453" />
      <stop
         style="stop-color:#333333;stop-opacity:1"
         offset="1"
         id="stop15455" />
    </linearGradient>
    <filter
       style="color-interpolation-filters:sRGB"
       inkscape:label="Drop Shadow"
       id="filter25250-2"
       x="-0.012010853"
       y="-0.081327298"
       width="1.0323622"
       height="1.2191294">
      <feFlood
         flood-opacity="0.498039"
         flood-color="rgb(0,0,0)"
         result="flood"
         id="feFlood25240-0" />
      <feComposite
         in="flood"
         in2="SourceGraphic"
         operator="in"
         result="composite1"
         id="feComposite25242-2" />
      <feGaussianBlur
         in="composite1"
         stdDeviation="3"
         result="blur"
         id="feGaussianBlur25244-3" />
      <feOffset
         dx="6"
         dy="6"
         result="offset"
         id="feOffset25246-7" />
      <feComposite
         in="SourceGraphic"
         in2="offset"
         operator="over"
         result="composite2"
         id="feComposite25248-5" />
    </filter>
    <filter
       style="color-interpolation-filters:sRGB"
       inkscape:label="Drop Shadow"
       id="filter25220-2"
       x="-0.044247284"
       y="-0.045555476"
       width="1.1079762"
       height="1.1114351">
      <feFlood
         flood-opacity="0.498039"
         flood-color="rgb(0,0,0)"
         result="flood"
         id="feFlood25210-6" />
      <feComposite
         in="flood"
         in2="SourceGraphic"
         operator="in"
         result="composite1"
         id="feComposite25212-1" />
      <feGaussianBlur
         in="composite1"
         stdDeviation="3"
         result="blur"
         id="feGaussianBlur25214-8" />
      <feOffset
         dx="6"
         dy="6"
         result="offset"
         id="feOffset25216-7" />
      <feComposite
         in="SourceGraphic"
         in2="offset"
         operator="over"
         result="composite2"
         id="feComposite25218-9" />
    </filter>
    <linearGradient
       inkscape:collect="always"
       xlink:href="#linearGradient150"
       id="linearGradient152"
       x1="163.4306"
       y1="510.853"
       x2="393.35782"
       y2="575.18604"
       gradientUnits="userSpaceOnUse"
       gradientTransform="translate(5.9640604,15.851229)" />
    <linearGradient
       inkscape:collect="always"
       id="linearGradient150">
      <stop
         style="stop-color:#3fa652;stop-opacity:1"
         offset="0"
         id="stop146" />
      <stop
         style="stop-color:#2d773b;stop-opacity:1"
         offset="1"
         id="stop148" />
    </linearGradient>
    <filter
       style="color-interpolation-filters:sRGB"
       inkscape:label="Drop Shadow"
       id="filter25274-3"
       x="-0.035406231"
       y="-0.090011888"
       width="1.095712"
       height="1.243325">
      <feFlood
         flood-opacity="0.498039"
         flood-color="rgb(0,0,0)"
         result="flood"
         id="feFlood25264-6" />
      <feComposite
         in="flood"
         in2="SourceGraphic"
         operator="in"
         result="composite1"
         id="feComposite25266-1" />
      <feGaussianBlur
         in="composite1"
         stdDeviation="3"
         result="blur"
         id="feGaussianBlur25268-2" />
      <feOffset
         dx="6"
         dy="6"
         result="offset"
         id="feOffset25270-9" />
      <feComposite
         in="SourceGraphic"
         in2="offset"
         operator="over"
         result="composite2"
         id="feComposite25272-3" />
    </filter>
    <linearGradient
       inkscape:collect="always"
       xlink:href="#linearGradient14847"
       id="linearGradient14849"
       x1="64.534134"
       y1="691.09851"
       x2="410.7229"
       y2="619.22949"
       gradientUnits="userSpaceOnUse" />
    <linearGradient
       inkscape:collect="always"
       id="linearGradient14847">
      <stop
         style="stop-color:#ff0066;stop-opacity:1"
         offset="0"
         id="stop14843" />
      <stop
         style="stop-color:#92003a;stop-opacity:1"
         offset="1"
         id="stop14845" />
    </linearGradient>
    <filter
       style="color-interpolation-filters:sRGB"
       inkscape:label="Drop Shadow"
       id="filter25262-9"
       x="-0.023717513"
       y="-0.095120391"
       width="1.0639736"
       height="1.2565698">
      <feFlood
         flood-opacity="0.498039"
         flood-color="rgb(0,0,0)"
         result="flood"
         id="feFlood25252-2" />
      <feComposite
         in="flood"
         in2="SourceGraphic"
         operator="in"
         result="composite1"
         id="feComposite25254-2" />
      <feGaussianBlur
         in="composite1"
         stdDeviation="3"
         result="blur"
         id="feGaussianBlur25256-8" />
      <feOffset
         dx="6"
         dy="6"
         result="offset"
         id="feOffset25258-9" />
      <feComposite
         in="SourceGraphic"
         in2="offset"
         operator="over"
         result="composite2"
         id="feComposite25260-7" />
    </filter>
  </defs>
  <g
     inkscape:label="Layer 1"
     inkscape:groupmode="layer"
     id="layer1"
     transform="translate(-6.3616,-13.402618)">
    <path
       style="fill:#c20b0b;fill-opacity:1;fill-rule:nonzero;stroke:#ffffff;stroke-width:0.194203px;stroke-linecap:butt;stroke-linejoin:miter;stroke-opacity:1;marker-start:url(#Arrow1Lstart-356)"
       d="m 39.75057,91.643521 c -0.306814,-0.560838 -0.959614,-1.656477 -2.291341,-3.496543 -0.211189,-0.291804 -0.445987,-0.613942 -0.713345,-0.975551 -1.091271,-1.475977 -2.299035,-3.036846 -4.291406,-5.5326 -2.680641,-3.357918 -7.080124,-8.744646 -11.336669,-14.570364 -2.094363,-2.867961 -3.713168,-5.937564 -4.835204,-9.012238 -1.17961,-3.232445 -1.764629,-6.339222 -1.880144,-9.173719 -0.002,-0.04964 -0.0039,-0.09933 -0.0057,-0.149043 -0.100553,-2.865847 0.26649,-5.825833 1.362981,-8.626507 1.02636,-2.621545 2.680029,-5.069535 5.126273,-7.130166 2.339977,-1.976561 4.864382,-3.35209 7.42802,-4.146905 2.791117,-0.865342 5.529409,-1.013794 8.069674,-0.620107 3.214735,0.498216 5.894255,1.824146 7.967374,3.305871 0.54889,0.392309 1.047259,0.789602 1.494445,1.175634 2.810513,2.426162 4.552958,5.167435 5.350097,6.482241 -0.755749,-1.307866 -2.485006,-4.090362 -5.220592,-6.626959 -0.436656,-0.404894 -0.922372,-0.827571 -1.458047,-1.251387 -2.012759,-1.592458 -4.666693,-3.146376 -7.976319,-3.901925 -2.622911,-0.598779 -5.540602,-0.663618 -8.600345,0.06459 -2.811415,0.669105 -5.631389,1.984395 -8.274132,3.994347 -2.817103,2.150079 -4.815017,4.813548 -6.085288,7.755452 -1.352287,3.131852 -1.826708,6.450793 -1.71764,9.613907 0.0019,0.05485 0.004,0.109644 0.0062,0.16438 0.127866,3.126224 0.838359,6.494244 2.205114,9.915324 1.300105,3.25425 3.149889,6.442079 5.486407,9.359523 4.662549,5.813805 9.226963,10.672723 12.261389,13.923864 2.161974,2.316379 3.527588,3.789381 4.707547,5.159192 0.291802,0.338753 0.548712,0.644519 0.775373,0.921602 1.435704,1.755085 2.108003,2.832379 2.445234,3.378088 z"
       id="path26020"
       sodipodi:nodetypes="cssc"
       inkscape:path-effect="#path-effect110-5"
       inkscape:original-d="M 39.75057,91.643521 C 36.676086,86.360635 28.996441,78.967937 20.339418,67.664619 11.595335,56.24762 9.879634,40.532695 20.276152,32.214488 c 9.768992,-7.816144 23.087391,-6.271461 30.919521,6.959036" />
    <path
       style="fill:#c20b0b;fill-opacity:1;fill-rule:nonzero;stroke:#ffffff;stroke-width:0.205357px;stroke-linecap:butt;stroke-linejoin:miter;stroke-opacity:1;marker-start:url(#Arrow1Lstart-3-1)"
       d="M 37.052315,92.118724 C 36.719917,91.51112 36.004597,90.397185 34.516402,88.46707 34.279083,88.159279 34.020844,87.824917 33.722272,87.44315 32.440911,85.804745 31.221767,84.318508 28.948987,81.610176 25.882604,77.956156 21.2226,72.494405 16.789294,66.222415 c -2.118315,-3.003073 -3.643316,-6.197122 -4.627548,-9.369523 -0.884705,-2.851601 -1.310218,-5.609004 -1.394661,-8.166821 -0.01576,-0.477403 -0.02003,-0.958953 -0.01163,-1.443818 0.05131,-2.961425 0.576085,-6.015583 1.798425,-8.920961 1.148349,-2.729509 2.899405,-5.292297 5.385272,-7.463374 2.391967,-2.098018 4.948303,-3.600193 7.542942,-4.513926 2.830094,-0.996651 5.613878,-1.262665 8.222331,-0.948842 3.312454,0.398523 6.103387,1.698095 8.276031,3.210646 0.576115,0.40108 1.098972,0.810178 1.567015,1.209605 2.956093,2.522724 4.764363,5.429443 5.607285,6.819763 -0.794264,-1.374519 -2.641217,-4.301669 -5.470082,-6.972559 -0.450963,-0.42578 -0.952117,-0.872453 -1.504588,-1.321746 -2.064988,-1.679335 -4.796727,-3.35099 -8.251394,-4.180444 -2.735516,-0.656789 -5.80634,-0.751236 -9.073135,0.0059 -2.995693,0.694262 -6.027896,2.078281 -8.910148,4.199765 -3.073094,2.275716 -5.3824,5.132085 -6.9522166,8.320054 -1.6657323,3.382753 -2.428452,6.990993 -2.5195408,10.461383 -0.014889,0.567243 -0.011849,1.129449 0.00776,1.685291 0.105153,2.981237 0.7002639,6.138775 1.8579538,9.315202 1.2881413,3.534354 3.2326717,6.979048 5.8048607,10.100265 5.089494,6.15614 10.291163,10.98749 13.853237,14.2703 2.52996,2.331613 4.081544,3.741702 5.470953,5.147907 0.336505,0.340573 0.631722,0.649995 0.890814,0.932796 1.640343,1.790448 2.332283,2.935634 2.693089,3.519491 z"
       id="path26020-5"
       sodipodi:nodetypes="cssc"
       inkscape:path-effect="#path-effect110-7-4"
       inkscape:original-d="M 37.052315,92.118724 C 33.80125,86.532421 24.620986,79.187836 15.466758,67.235323 6.2204732,55.162603 5.9486535,38.407931 16.942281,29.611975 27.272345,21.346918 40.872796,22.644789 49.154755,36.635164" />
    <path
       id="path3605-9"
       sodipodi:nodetypes="cccccccc"
       style="opacity:0.0363638;fill:#550000;stroke-width:0.124617"
       d="m 31.976936,34.920075 c -5.059825,-1.237099 -10.278744,0.75308 -13.290243,5.676041 -6.733408,13.916931 7.50543,23.142815 13.799003,33.715217 9.948882,-7.638669 26.067277,-6.303748 28.140869,-20.670252 0.216666,-3.336769 -0.865262,-6.388804 -2.75581,-8.83649 -2.53314,-3.283142 -6.741942,-5.301968 -10.917241,-4.857259 -2.216855,0.17487 -4.393477,0.92524 -6.211776,2.20452 -1.608672,-3.593105 -4.944008,-6.30178 -8.764802,-7.231777 z" />
    <path
       id="path2723-2"
       sodipodi:nodetypes="csccsscc"
       style="opacity:0.0363638;fill:url(#linearGradient16576);stroke-width:0.117526"
       d="m 66.172477,60.640443 c -3.224633,-0.86524 -6.336036,-0.829646 -9.87575,2.769893 -4.048662,4.117298 -3.961965,11.135959 2.378751,20.281952 l 8.22699,11.409584 c 0.949326,-1.715831 4.581,-4.206916 12.934199,-6.951067 C 88.850312,85.189671 92.275412,79.435761 91.197193,74.199279 89.078844,63.917346 77.88791,63.755411 73.820411,68.252535 73.117734,65.013944 70.058732,61.684189 66.172235,60.641351 Z" />
    <path
       id="path3495-2"
       sodipodi:nodetypes="cssc"
       style="fill:url(#linearGradient16578);filter:url(#filter3956-2)"
       d="m -53.929,79.245 c -11.231,-11.279 -37.715,-6.7984 -59.116,10.002 -21.401,16.8004 -25.356,44.856 -18.424,50.868 29.072,25.213 -15.556,-40.029 77.54,-60.87 z"
       transform="matrix(0.1204085,0.03211236,-0.03211236,0.1204085,42.7475,27.933338)" />
    <text
       xml:space="preserve"
       style="font-style:normal;font-variant:normal;font-weight:normal;font-stretch:normal;font-size:115.23px;line-height:1.25;font-family:Aero;-inkscape-font-specification:'Aero, Normal';font-variant-ligatures:normal;font-variant-caps:normal;font-variant-numeric:normal;font-variant-east-asian:normal;fill:url(#linearGradient15459);fill-opacity:1;stroke:#ffffff;stroke-width:2.88076;filter:url(#filter25250-2)"
       x="47.747219"
       y="803.34131"
       id="text1851"
       transform="matrix(0.19247775,4.18815e-4,-4.18815e-4,0.19247775,8.2533794,-61.951778)"><tspan
         sodipodi:role="line"
         id="tspan1849"
         x="47.747219"
         y="803.34131"
         style="font-style:normal;font-variant:normal;font-weight:normal;font-stretch:normal;font-size:115.23px;font-family:Aero;-inkscape-font-specification:'Aero, Normal';font-variant-ligatures:normal;font-variant-caps:normal;font-variant-numeric:normal;font-variant-east-asian:normal;fill:url(#linearGradient15459);fill-opacity:1;stroke:#ffffff;stroke-width:2.88076">Open Source</tspan></text>
    <path
       inkscape:export-ydpi="48.18"
       inkscape:export-xdpi="48.18"
       inkscape:export-filename="/home/rafael/workspace/logo-osi/3/png/logo396x412.png"
       id="path3773"
       d="m 570.22035,596.58464 m 19.16332,49.91877 a 53.469106,53.469106 0 1 0 -38.32665,0 l -36.01678,93.84896 a 153.99102,153.99102 0 1 1 110.36022,0 z"
       inkscape:connector-curvature="0"
       style="text-anchor:middle;fill:#3fa652;stroke:#ffffff;stroke-width:12.8325;stroke-linejoin:round;filter:url(#filter25220-2)"
       transform="matrix(0.20181285,0,0,0.20181285,4.8603879,-73.181528)" />
    <path
       inkscape:export-ydpi="48.18"
       inkscape:export-xdpi="48.18"
       inkscape:export-filename="/home/rafael/workspace/logo-osi/3/png/logo396x412.png"
       id="path3773-6"
       d="m 119.93818,47.21692 m 3.8674,10.074249 a 10.790753,10.790753 0 1 0 -7.7348,0 l -7.26866,18.939926 a 31.077367,31.077367 0 1 1 22.27211,0 z"
       inkscape:connector-curvature="0"
       style="text-anchor:middle;fill:none;stroke:#1a1a1a;stroke-width:2.58976;stroke-linejoin:round;stroke-miterlimit:4;stroke-dasharray:62.1543, 62.1543;stroke-dashoffset:25.8976" />
    <path
       inkscape:export-ydpi="48.18"
       inkscape:export-xdpi="48.18"
       inkscape:export-filename="/home/rafael/workspace/logo-osi/3/png/logo396x412.png"
       id="path3773-6-2"
       d="m 119.93818,47.21692 m 3.8674,10.074249 a 10.790753,10.790753 0 1 0 -7.7348,0 l -7.26866,18.939926 a 31.077367,31.077367 0 1 1 22.27211,0 z"
       inkscape:connector-curvature="0"
       style="text-anchor:middle;fill:none;stroke:#1a1a1a;stroke-width:2.58976;stroke-linejoin:round;stroke-miterlimit:4;stroke-dasharray:62.1543, 62.1543;stroke-dashoffset:8.02828" />
    <path
       inkscape:export-ydpi="48.18"
       inkscape:export-xdpi="48.18"
       inkscape:export-filename="/home/rafael/workspace/logo-osi/3/png/logo396x412.png"
       id="path3773-6-2-4"
       d="m 119.93818,47.21692 m 3.8674,10.074249 a 10.790753,10.790753 0 1 0 -7.7348,0 l -7.26866,18.939926 a 31.077367,31.077367 0 1 1 22.27211,0 z"
       inkscape:connector-curvature="0"
       style="text-anchor:middle;fill:none;stroke:#1a1a1a;stroke-width:2.58976;stroke-linejoin:round;stroke-miterlimit:4;stroke-dasharray:20.7181, 10.3591;stroke-dashoffset:23.0488" />
    <text
       xml:space="preserve"
       style="font-style:normal;font-variant:normal;font-weight:normal;font-stretch:normal;font-size:106.542px;line-height:1.25;font-family:'Butter Chicken';-inkscape-font-specification:'Butter Chicken, Normal';font-variant-ligatures:normal;font-variant-caps:normal;font-variant-numeric:normal;font-variant-east-asian:normal;opacity:1;fill:url(#linearGradient152);fill-opacity:1;stroke:#ffffff;stroke-width:2.66354;filter:url(#filter25274-3)"
       x="165.32178"
       y="593.18768"
       id="text10551"
       transform="matrix(0.19247775,0,0,0.19247775,8.2533794,-61.951778)"><tspan
         sodipodi:role="line"
         id="tspan10549"
         x="165.32178"
         y="593.18768"
         style="fill:url(#linearGradient152);fill-opacity:1;stroke:#ffffff;stroke-width:2.66354">Share</tspan></text>
    <text
       xml:space="preserve"
       style="font-style:normal;font-variant:normal;font-weight:normal;font-stretch:normal;font-size:112.353px;line-height:1.25;font-family:Berliner;-inkscape-font-specification:'Berliner, Normal';font-variant-ligatures:normal;font-variant-caps:normal;font-variant-numeric:normal;font-variant-east-asian:normal;fill:url(#linearGradient14849);fill-opacity:1;stroke:#ffffff;stroke-width:2.80884;filter:url(#filter25262-9)"
       x="56.890133"
       y="673.04156"
       id="text11245"
       transform="matrix(0.19247775,0,0,0.19247775,8.2533794,-61.951778)"><tspan
         sodipodi:role="line"
         id="tspan11243"
         x="56.890133"
         y="673.04156"
         style="font-style:normal;font-variant:normal;font-weight:normal;font-stretch:normal;font-size:112.353px;font-family:Berliner;-inkscape-font-specification:'Berliner, Normal';font-variant-ligatures:normal;font-variant-caps:normal;font-variant-numeric:normal;font-variant-east-asian:normal;fill:url(#linearGradient14849);fill-opacity:1;stroke:#ffffff;stroke-width:2.80884">the love</tspan></text>
    <text
       xml:space="preserve"
       style="font-style:normal;font-variant:normal;font-weight:normal;font-stretch:normal;font-size:121.369px;line-height:1.25;font-family:'42 Emancipated';-inkscape-font-specification:'42 Emancipated, Normal';font-variant-ligatures:normal;font-variant-caps:normal;font-variant-numeric:normal;font-variant-east-asian:normal;fill:#ffffff;fill-opacity:1;stroke:#000000;stroke-width:3.03422"
       x="250.54807"
       y="753.97217"
       id="text12173"
       transform="matrix(0.19247775,0,0,0.19247775,8.2533794,-61.951778)"
       inkscape:export-filename="logo396x412.svg"
       inkscape:export-xdpi="48.18"
       inkscape:export-ydpi="48.18"><tspan
         sodipodi:role="line"
         id="tspan12171"
         x="250.54807"
         y="753.97217"
         style="font-style:normal;font-variant:normal;font-weight:normal;font-stretch:normal;font-size:121.369px;font-family:'42 Emancipated';-inkscape-font-specification:'42 Emancipated, Normal';font-variant-ligatures:normal;font-variant-caps:normal;font-variant-numeric:normal;font-variant-east-asian:normal;fill:#ffffff;stroke:#000000;stroke-width:3.03422">of</tspan></text>
  </g>
</svg>
